<?xml version="1.0" encoding="utf-8"?>
<!-- Generator: Adobe Illustrator 27.0.1, SVG Export Plug-In . SVG Version: 6.00 Build 0)  -->
<svg version="1.1" id="Camada_1" xmlns="http://www.w3.org/2000/svg" xmlns:xlink="http://www.w3.org/1999/xlink" x="0px" y="0px"
	 viewBox="0 0 220.69 70" style="enable-background:new 0 0 220.69 70;" xml:space="preserve">
<style type="text/css">
	.st0{fill:#F7F7F7;}
	.st1{fill:#FFFFFF;}
</style>
<g>
	<g>
		<path class="st0" d="M159.68,27.68c0,0,0.34-2.28,3.93-6.93c0,0,2.53-3.56,8.06-6.16c0,0-11.13,7.85-9.78,25.24l-1.21-1.42
			c0,0,0.49-4.55-3.9-7.63c-4.39-3.08-10.52-0.75-12.62,0.96l-1.2,1.19c0,0,2.91-0.21,5.93,4.18c3.02,4.39,4.48,5.26,7.29,5.23
			c0,0,0.81,0.17,2.55-0.57c0,0-0.66-4.51-7.4-8.46c0,0,4.99,0.33,8.51,5.28c0,0,2.72,3.9,3.18,8.29s5.02,12.59,13.37,18.96
			s21.95,4.99,29.88-1.23c0,0,6.3-5.2,7.5-8.31c0,0,1.83-2.98,3-6.08c1.17-3.1,1.67-5.96,1.67-5.96s0.61-3.44,0.57-5.27
			c0,0-0.79,15.84-13.47,23.71s-23.78,2.94-30.86-2.6c0,0-5.67-6.29-6.52-8.55c0,0-0.88-7.4,3.3-12.56c0,0,1.8-2.18,2.38-2.24
			c0,0-4.06,4.34-3.54,10.29c0,0,3.32,0.14,5.21-3.28c0,0,1.22-2.29,1.22-3.97c0,0,0.76-3.86,2.38-5.68c1.62-1.81,1.56-1.4,1.56-1.4
			s-5.4-2.02-10.4,2.05s-3.14,9.58-2.62,10.47c0,0-0.55,2.36-0.64,3.32c0,0-1.74-3.16-2.15-9.11c-0.41-5.95,0.44-9.32,0.44-9.32
			s4.97,0.21,8.51-4.48c0,0,1.31-1.68,1.95-3.18c0.64-1.5,1.62-3.8,4.12-7.35s5.98-4.41,5.98-4.41s-6.68-4.37-14.09-2.62
			c-7.41,1.74-9.79,5.57-10.36,6.13C160.82,14.75,156.95,19.57,159.68,27.68z"/>
		<path class="st0" d="M188.31,12.29c0,0-0.66,0.77-2.73,1.3c0,0-0.43-0.09-0.88,0.31c0,0-0.04,0.25,0.08,0.26
			c0.11,0.01-0.71,0.18-0.47,0.87c0,0,0.77,0.27,1.82-0.78c0,0,1.03-0.74,1.46-0.88c0,0,0.91-0.68,1.27-1.16c0,0,0.72-0.3,1.05-0.98
			c0,0-0.59-0.64-2.91,0.74c0,0,0.19,0.1,0.32,0.09l-0.98,0.47l1.8-0.21L188.31,12.29z"/>
		<path class="st0" d="M189.4,12.18c0,0,1.25-1.12,1.7-1.27c0.45-0.15,0.51,0.17,0.51,0.17l-0.07,0.54c0,0,0.35-0.01,0.39,0.02
			c0.04,0.03-0.22,0.29-0.22,0.29l0.57,0.08l-0.18,0.24c0,0,0.81,0.04,0.87,0.09l-0.56,0.25c0,0,1.36,0.33,2.24,1.02l0.38,0.14
			c0,0-1,1.18-2.08,1.4c0,0-1.12,0.41-1.33,0.64l-0.3,0.13c0,0,0.19,0.23-0.12,0.41s-3.3,0.1-3.58,0.22s-1.4,0.21-1.71,0.78
			c0,0-0.71,0.65-1.2,0.73c0,0,0.5-1.39,0.84-1.59c0,0,1.39-1.47,2.13-1.9c0.74-0.43,1.33-0.67,1.33-0.67s1.44-1.17,1.41-1.25
			s-0.5-0.12-0.5-0.12l0.32-0.38L189.4,12.18z"/>
		<path class="st0" d="M197.7,11c0,0,4.96,0.97,7.33,2.8c0,0,5.07,3.45,7.19,7.33c2.12,3.88,3.74,6.04,4.45,11.83
			s-0.23,8.39-0.23,8.39s-0.11-2.57-0.37-2.92c0,0-0.12,0.29-0.19,0.34c-0.07,0.05-0.46-0.11-0.59-0.52c0,0,0.02-0.7-0.32-0.86
			c-0.34-0.16-1.01,0.56-1.01,0.56s-0.27,0.32-0.77,0.33c0,0-0.19-0.41-0.77-0.51c0,0-0.26,0.34-0.68,0.54s-0.91-0.86-1.62-0.95
			c0,0-0.12,0.5,0.48,1.33c0,0,0.36,1.15,0.63,1.34c0.27,0.2,0.28,0.21,0.41,0.18c0.13-0.03,0.37-0.04,0.7-1.21
			c0,0,0.17-0.39,0.32-0.49c0,0,1.05,1.47,0.95,1.9c-0.1,0.43-0.14,1.68-1.25,3.19c0,0-1.67,2.59-2.44,3.02
			c-0.76,0.43-0.56,0.39-1.17,0.5c0,0-0.05-3.79-3.24-7.14c0,0,0.24,2.39,1.35,4.27c0,0,1.8,3.4,2.05,3.87c0,0,0.37,0.14,0.82-0.29
			c0.45-0.44,0.8-0.33,0.8-0.33s0.39-0.21,0.59-0.74c0.2-0.54,1.11-0.84,1.11-0.84s-0.51,1.33-1.09,2.68c0,0-2.2,5.14-3.09,6.27
			c-0.89,1.13-3.74,4.04-5.56,5.35c-1.83,1.32-2.93,3.61-5.18,4.67c-2.26,1.06-3.14-0.24-3.14-0.24s-1.02-0.02-0.98-4.53
			c0,0,0.17-5.78-0.4-7.9c0,0-1.25,0.29-2.45-1.16c0,0-0.1-0.52-1.61,0.04c0,0-0.26,0.25-1.31-0.19c-1.05-0.44-0.89-0.28-1.76-0.29
			c0,0-1.88,0.15-2.66-1.93c0,0-0.54-0.97-1.46-1.94c0,0-0.51-1.33-0.5-1.72c0,0-0.18-1.01-0.38-1.35c0,0,1.17-1.32,1.21-2.85
			c0,0,0-0.62-0.11-0.87c-0.11-0.26,0.22-0.68,0.22-0.68s1.41-1.15,1.38-1.33c-0.02-0.18,1.37-1.18,1.64-1.22
			c0.26-0.04,1.16-0.42,1.32-0.81c0,0,0.1-0.6,0.01-0.85c0,0,0.18-0.6,1.35-1c0,0,0.86-0.39,0.97-0.89c0,0,0.79,0.83,1.32,0.9
			s1.35-0.14,1.35-0.14s1.5-0.17,2.2,0.14l2.04-0.07c0,0,0.24,0.18,0.02,0.75c-0.22,0.57-0.24,1.09-0.24,1.09s-0.15,0.85,1.69,1.27
			l1.15,0.77c0,0,0.55,0.59,2.07-0.8c0,0,0.27-0.34,1.67,0.25c1.39,0.59,2.04,0.42,2.04,0.42s1.53,0.11,1.75-1.5l0.23-1.87
			c0,0-0.25,0.62-1.38,0.41c0,0-0.85-0.1-0.93,0.07s-0.35,0.14-0.35,0.14l-1.02-0.83c0,0-0.11-0.24,0.06-0.42
			c0,0-1.07-0.12-0.54-1.35c0,0-1.05-0.15-1.06,0.47c0,0,0.02,0.06,0.23,0.09c0,0-0.34,0.7,0.31,0.96c0,0-0.53,0.17-0.46,0.72
			c0,0-0.54-0.04-0.74-0.28c0,0,0.09-0.34-0.55-1.31l0.01-0.78c0,0-1.71-1.85-1.84-1.88c0,0-0.18-0.6-0.95-1.04
			c0,0,0.03,1.32,1.17,2.45c0,0,0.68,0.63,0.89,0.62c0.21-0.02-0.07,0.43-0.15,0.32c-0.08-0.11-0.38-0.15-0.38-0.15
			s0.17,0.39,0.09,0.57c-0.08,0.19-0.71,0.96-0.71,0.96l-0.07,0.39c0,0-0.94-0.41-1.19-0.88c0,0,0.74-0.06,1.18-0.01
			c0,0,0.42-0.21,0.37-0.74c-0.05-0.53-1.39-1.3-1.39-1.3s-0.4-0.35-0.56-0.93s-0.56-0.91-1.1-0.52c-0.54,0.38-0.81,0.27-0.81,0.27
			s-1.04-0.26-1.07-0.15c-0.02,0.1-0.97,2.11-2.58,2.63s-2.29,0.04-2.29,0.04s-0.92-0.42-0.3-1.84c0.61-1.42,0.23-1.78,1.43-2.04
			c0,0,2.1,0.71,2.2,0.66c0,0-0.07-0.68,0.23-1.18s-0.37-1.14-0.6-1.33c-0.23-0.19-0.52-0.51-0.52-0.51s0.3,0.25,0.66,0.23
			c0,0,0.65-0.34,0.74-0.41c0.09-0.07,0.85-0.07,1.14-0.03c0,0,0.02-0.28,0.04-0.51c0,0,0.55,0.16,0.82-0.25
			c0.27-0.42,1.01-0.65,1.15-0.64c0.14,0.01,0.57-0.03,0.57-0.03s-0.03-0.13-0.17-0.37c0,0,0.08-1.25,0.44-1.22
			c0,0,0.06-0.55,0.35-0.51c0.3,0.03,0.1,0.77,0.1,0.77l-0.02,0.08c0,0,0.34,0.03,0.41,0.07s-0.15,0.83-0.15,0.83
			s0.42,0.24,0.7,0.65c0,0,0.64-0.53,1.46-0.52c0,0,0.47-0.21,0.47-1.06c0-0.86,0.55-0.55,0.55-0.55l-0.3-0.39
			c0,0,0.06-0.24,1.33-0.31l0.37-0.17c0,0-1.07-0.48-1.71-0.05c0,0-0.63-0.15-0.49-1.21c0,0,0.3-0.68,0.44-0.94
			c0.14-0.26-0.06-0.79-0.21-0.65c-0.15,0.14-0.17,0-0.27,0.5c0,0-0.58,0.31-0.67,1.06c0,0-0.58,0.74-0.09,1.2
			c0.49,0.46-0.08,0.86-0.08,0.86s-0.09,0.74-0.67,1.13c0,0-0.29-1.3-0.91-1.83c0,0-0.93,0.5-1.22,0.53
			c-0.29,0.03-0.59-1.49-0.11-2.34c0,0,0.52,0.53,2.42-1.86c0,0,0.66-1.23,2.38-0.63c0,0,1.8,0,1.68,0.72s-0.98,0.53-0.98,0.53
			s-0.55,0.24,0.27,0.31c0,0,0.55,0.03,0.44,0.56c0,0,0.38,0.5,0.53-0.14c0,0,0.08-0.26,0.27-0.41c0,0,0.02-0.65-0.15-0.86
			c0,0,0.2,0.6,0.66,0.6c0,0,0.18-0.1,0.2-0.36c0.02-0.26,0.07-0.41,0.32-0.47c0,0-0.28-0.39,0.34-0.63c0,0,0.17-0.01,0.17-0.09
			c-0.01-0.08-0.4-0.28-0.4-0.28s0.65-0.13,0.78-0.23c0.13-0.09-0.67-1.36-0.67-1.36l0.26,0.05c0,0-0.3-0.62-0.82-0.89
			s-0.49-1.09-0.49-1.09s-0.23-0.34-0.35-0.37s1.02,0.42,1.34,0.32c0.32-0.1-1.95-1.2-2.45-1.21c-0.5-0.02-2.2-1.31-2.2-1.31
			L197.7,11z"/>
		<path class="st0" d="M191,25.93c0,0,0.68-0.32,1.52-0.3s0.85-0.39,0.75-0.56c-0.09-0.17-0.24-0.48-0.4-0.87
			c-0.15-0.39,0.05-0.64,0.05-0.64s-0.56-0.2-0.34-0.84c0,0,0.32-0.07,0.33-0.5c0.01-0.44-0.78-0.51-0.75-0.38
			c0,0-0.31,0.03-0.27,0.53c0.05,0.5-0.03,0.56-0.03,0.56s-0.43,0.04-0.12,0.38c0,0-0.12,0.88,0.18,0.86c0,0-0.5,0.22-0.5,0.62
			c0,0,0.34,0.08,0.46,0.32C191.87,25.11,190.82,25.48,191,25.93z"/>
		<path class="st0" d="M189.63,24.69c0,0,0.45-0.7,0.62-0.86c0.17-0.17-0.04-0.74-0.04-0.74s0.75,0.02,1.06,0.55
			c0,0-0.03,0.52-0.5,0.82C190.31,24.75,189.63,24.69,189.63,24.69z"/>
		<path class="st0" d="M197.24,15.79c0,0,0.23-0.56-0.44-0.69c0,0-0.03-0.57,0.16-0.75c0,0,0.26,0.29,0.27,0.43
			c0,0,0.36-0.2,0.57-0.14c0,0-0.22,0.24-0.17,0.31c0.06,0.07,0.22,0.22,0.22,0.22s-0.59-0.09-0.42,0.11
			C197.6,15.48,197.24,15.79,197.24,15.79z"/>
		<path class="st0" d="M202.8,17.52c0,0-0.97-1.26-0.98-1.84c0-0.58,0.04-0.77,0.04-0.77s-0.65-0.18-0.37,1.27
			C201.77,17.65,202.8,17.52,202.8,17.52z"/>
		<path class="st0" d="M190.63,18.05c0,0-0.43-0.46-0.52-0.74c-0.09-0.27-0.37,0.63-0.37,0.63s0.11,0.26,0.24,0.29
			c0,0-0.29,0.53,0.39,0.53s0.79,0.33,1.13-0.69c0,0-0.66-0.18-0.86-0.12C190.45,18.03,190.63,18.05,190.63,18.05z"/>
	</g>
	<g>
		<path class="st1" d="M29.94,64.3c8.32,0,12.83-4.2,14.84-6.64c0.15-0.18,0.22-0.4,0.22-0.63V38.48c0-0.55-0.45-1-1-1h-9.29v-0.49
			h16.72c0.54,0,0.98,0.43,1,0.97l0.46,16.66c0.01,0.25-0.08,0.5-0.24,0.69c-5.34,6.22-13.22,9.49-22.7,9.49
			C10.61,64.8,0,51.22,0,33.86S10.61,2.11,29.94,2.11c9.13,0,16.27,3.17,21.28,8.42c0.18,0.19,0.28,0.44,0.28,0.7v4.09
			c0,0.99-1.28,1.38-1.83,0.55C46.53,11.11,40.17,2.6,29.94,2.6C14.07,2.6,7.65,19.3,7.65,33.86C7.65,48.51,14.07,64.3,29.94,64.3z"
			/>
		<path class="st1" d="M104.33,63.62l-2.7-2.64c-0.36-0.35-0.91-0.37-1.31-0.07c-3.39,2.58-7.94,4.31-13.71,4.31
			c-15.38,0-26.49-8.14-26.49-19.99c0-9.86,6.63-16.15,12.09-19.22c0.46-0.26,0.64-0.82,0.42-1.3c-1.57-3.4-2.56-6.7-2.56-9.51
			c0-10.12,9.38-12.67,14.64-12.67c7.24,0,12.09,4.11,12.09,9.3c0,2.11-0.84,3.89-1.67,5.26c-0.33,0.55-0.2,0.51-0.65,0.06l0,0
			c-0.48-0.48-0.71-0.73-0.09-1.01c1.08-0.49,1.92-1.75,1.92-4.31c0-5.76-5.59-8.8-10.94-8.8c-7.07,0-9.87,4.85-9.87,9.95
			c0,11.14,16.87,30.17,28.16,41.79c0.45,0.46,1.23,0.38,1.55-0.17c2-3.38,3.02-6.82,2.94-9.13c-0.08-2.48-1.83-6.77-0.02-6.48
			c0.58,2.55,0.51,3.93,0.51,6.48c0,2.78-1.02,6.5-3.25,9.94c-0.26,0.39-0.21,0.91,0.11,1.25c2.22,2.26,4.13,4.15,5.53,5.53
			c0.63,0.63,0.19,1.7-0.7,1.7h-5.32C104.76,63.9,104.51,63.8,104.33,63.62z M86.6,64.72c5.47,0,9.78-1.64,13.06-4.05
			c0.5-0.37,0.57-1.08,0.14-1.52C93,52.32,80.82,39.52,74.35,28.1c-0.34-0.61-1.19-0.7-1.63-0.16c-2.72,3.31-4.96,9.11-4.96,17.29
			C67.76,53.04,71.88,64.72,86.6,64.72z"/>
		<path class="st1" d="M156.07,5.9l-10.62-1.55c-0.05-0.01-0.1-0.01-0.14-0.01h-8.72c-0.55,0-1,0.45-1,1V62.9c0,0.55-0.45,1-1,1
			h-5.41c-0.55,0-1-0.45-1-1V5.34c0-0.55-0.45-1-1-1h-8.72c-0.05,0-0.1,0-0.14,0.01l-10.16,1.49c-0.29,0.04-0.59-0.05-0.81-0.24
			l-1.96-1.75h52.98L156.07,5.9L156.07,5.9z"/>
	</g>
</g>
</svg>
